<svg xmlns="http://www.w3.org/2000/svg" viewBox="0 0 4911 4527">
 <defs>
  <style>
<![CDATA[
.fil0{fill:url(#id0)}
.fil1{fill:url(#id1)}
.fil2{fill:#fff;fill-opacity:.4}
]]>
  </style>
  <linearGradient id="id0" gradientUnits="userSpaceOnUse" x1="2455" x2="2455" y1="0" y2="4527"><stop offset="0" stop-color="#02729D"/><stop offset="1" stop-color="#00333F"/></linearGradient>
  <linearGradient id="id1" gradientUnits="userSpaceOnUse" x1="2663" x2="2246" y1="4239" y2="336"><stop offset="0" stop-color="#FFE5BE"/><stop offset=".6" stop-color="#FEBE1D"/><stop offset=".7" stop-color="#FCB21F"/><stop offset=".8" stop-color="#F79420"/><stop offset="1" stop-color="#F37321"/></linearGradient>
 </defs>
 <g>
  <path d="M3415 4527c-990 0-1630-743-1630-1896 0-133 10-275 28-416C670 2074 0 1680 0 1141c0-355 289-668 882-955L1266 0l16 428c20 551 418 818 761 945C2397 549 3043 49 3780 49c781 0 1131 436 1131 868 0 563-592 1181-1723 1320-90 224-143 455-143 640 0 352 160 352 254 352 134 0 459-271 507-572l39-234h238c460 0 757 281 757 717-6 565-559 1387-1425 1387z" class="fil0"/>
  <path d="M3295 3507c299 0 717-397 782-805 311 0 478 163 478 438 0 430-446 1109-1142 1109-941 0-1351-762-1351-1618 0-216 28-446 78-662-1068-87-1861-410-1861-826 0-216 216-458 725-705 24 689 533 1117 1207 1276 250-757 806-1387 1567-1387 565 0 852 271 852 590 0 438-537 973-1633 1060-140 287-235 618-235 900 0 356 148 630 533 630zm-183-1730c549-40 741-212 741-335 0-69-65-127-160-127-202-2-414 191-581 462z" class="fil1"/>
  <path d="M3396 3711c342 0 752-391 863-801 60 8 111 24 153 48-46-85-131-135-256-149-111 412-521 801-863 801-155 0-284-40-385-117 109 142 274 218 488 218zm535-2364c15 28 23 58 23 93 0 89-53 186-180 264 103-40 196-87 281-137 2-8 2-18 2-26-2-83-51-154-126-194zM2268 2734c0-202 26-424 74-640 6-28 0-59-18-83s-44-38-75-40h-8c0 8 0 16-2 22-48 218-74 438-74 640 0 465 133 951 466 1244-258-299-363-729-363-1143zM483 1244c0-156 161-331 462-505-12-46-22-95-30-143-346 188-535 377-535 545 0 95 58 188 167 275-42-57-64-114-64-172zm1621 618c16 2 30 2 46 4 25 2 45 12 63 28 26 6 51 14 79 20 8 2 16 2 24 2 42 0 83-28 97-70 210-636 707-1317 1470-1317 244 0 442 57 573 154-115-160-355-255-674-255-763 0-1260 681-1470 1317-14 42-54 70-97 70-8 0-16 0-24-2-347-82-632-228-848-426 184 210 442 372 761 475z" class="fil2"/>
 </g>
</svg>
