<svg xmlns="http://www.w3.org/2000/svg" viewBox="0 0 6400 6400"><path fill="#0084ED" d="M6400 0H0v4800h899l1601 1600V4800h3900"/><path fill="#FFF" d="M4165 2859c-31 265-128 470-294 614-164 144-383 216-656 216-297 0-534-106-713-318-178-213-267-498-267-854v-241c0-233 41-439 124-616 84-177 201-312 354-407s330-142 531-142c266 0 480 74 640 222 161 149 255 355 281 618h-332c-29-200-91-345-187-434-96-90-230-135-402-135-212 0-377 78-497 235-120 156-180 378-180 667v242c0 273 57 490 170 651 114 160 273 241 478 241 183 0 324-42 422-125 99-83 164-227 196-434h332z"/></svg>
